<?xml version="1.0" encoding="utf-8"?>
<!-- Generator: Adobe Illustrator 17.0.0, SVG Export Plug-In . SVG Version: 6.00 Build 0)  -->
<!DOCTYPE svg PUBLIC "-//W3C//DTD SVG 1.1//EN" "http://www.w3.org/Graphics/SVG/1.1/DTD/svg11.dtd">
<svg version="1.1" id="Layer_1" xmlns="http://www.w3.org/2000/svg" xmlns:xlink="http://www.w3.org/1999/xlink" x="0px" y="0px"
	 width="91.698px" height="118.441px" viewBox="0 0 91.698 118.441" enable-background="new 0 0 91.698 118.441"
	 xml:space="preserve">
<g>
	<defs>
		<rect id="SVGID_1_" y="0" width="91.698" height="118.441"/>
	</defs>
	<clipPath id="SVGID_2_">
		<use xlink:href="#SVGID_1_"  overflow="visible"/>
	</clipPath>
	<path clip-path="url(#SVGID_2_)" fill="#A0348C" d="M86.521,107.315c0,0.181,0,0.362-0.013,0.543c0,0.091-0.013,0.181-0.026,0.272
		c-0.013,0.284,0.039-0.246,0.039-0.246c-0.103,0.362-0.129,0.737-0.233,1.099c-0.051,0.168-0.103,0.323-0.155,0.491
		c0,0.013-0.077,0.246-0.09,0.246s0.232-0.478,0.09-0.22c-0.168,0.324-0.323,0.66-0.517,0.97c-0.104,0.168-0.233,0.323-0.323,0.492
		c-0.143,0.258,0.155-0.22,0.155-0.182c0,0.026-0.142,0.169-0.155,0.194c-0.233,0.272-0.479,0.544-0.75,0.789
		c-0.13,0.117-0.259,0.22-0.375,0.336c-0.363,0.311,0.387-0.245-0.013,0c-0.311,0.194-0.608,0.401-0.944,0.569
		c-0.155,0.078-0.311,0.143-0.453,0.22c-0.259,0.13,0.22-0.116,0.22-0.09c0,0.013-0.22,0.077-0.246,0.09
		c-0.362,0.117-0.711,0.22-1.073,0.298c-0.168,0.038-0.349,0.038-0.517,0.09c0.013,0,0.543-0.052,0.245-0.039
		c-0.09,0-0.181,0.013-0.271,0.026c-0.181,0.013-0.362,0.013-0.543,0.013h-0.259h-4.565h-8.987h-11.78H42.038H29.573H19.215h-6.582
		h-1.396c-0.311,0-0.634-0.026-0.944-0.039c-0.285-0.013,0.245,0.039,0.245,0.039c-0.077-0.026-0.181-0.026-0.258-0.039
		c-0.168-0.025-0.337-0.064-0.518-0.103c-0.103-0.026-1.073-0.246-1.06-0.336c0-0.013,0.479,0.232,0.22,0.09
		c-0.078-0.039-0.155-0.064-0.233-0.103c-0.155-0.078-0.297-0.155-0.452-0.233c-0.143-0.078-0.298-0.168-0.44-0.259
		c-0.065-0.051-0.142-0.09-0.207-0.142c-0.052-0.026-0.09-0.064-0.142-0.09c-0.117-0.078-0.091-0.065,0.064,0.051
		c0.169,0.013,0.156,0.143,0,0c-0.064-0.051-0.129-0.103-0.194-0.168c-0.129-0.116-0.245-0.22-0.375-0.336
		c-0.142-0.142-0.271-0.284-0.4-0.427c-0.052-0.064-0.104-0.129-0.168-0.194c-0.039-0.038-0.078-0.09-0.104-0.129
		c-0.09-0.103-0.065-0.09,0.052,0.065c0.013,0.155,0.116,0.168,0-0.013c-0.039-0.065-0.091-0.142-0.142-0.207
		c-0.091-0.142-0.181-0.285-0.259-0.427c-0.091-0.142-0.168-0.297-0.233-0.452c-0.039-0.078-0.077-0.156-0.116-0.233
		c-0.181-0.375,0.052,0.142,0.064,0.142c-0.077,0-0.284-0.879-0.31-0.983c-0.039-0.168-0.077-0.336-0.116-0.504
		c-0.013-0.09-0.026-0.168-0.039-0.259c-0.065-0.349,0.039,0.518,0.026,0.169c0-0.272-0.039-0.544-0.039-0.815v-0.75v-4.565v-7.939
		V83.638V71.522V58.591V45.699V33.712V23.47v-7.642v-4.177c0-0.297,0-0.595,0.013-0.892c0-0.155,0.078-0.388,0.039-0.53
		c0,0-0.091,0.543-0.039,0.246c0.013-0.091,0.026-0.169,0.039-0.259C5.275,9.854,5.38,9.479,5.495,9.13
		c0.026-0.078,0.065-0.155,0.078-0.246c0.064-0.194-0.026-0.181,0-0.013s-0.091,0.194,0,0C5.613,8.794,5.65,8.716,5.689,8.638
		c0.168-0.323,0.349-0.646,0.543-0.944C6.285,7.63,6.337,7.565,6.375,7.488c0.142-0.259-0.156,0.219-0.156,0.181
		C6.206,7.591,6.492,7.345,6.544,7.281C6.788,7.009,7.048,6.75,7.318,6.518c0.065-0.052,0.13-0.104,0.194-0.168
		c0.169-0.143,0.169-0.026,0,0c-0.155,0.013-0.168,0.116,0.013,0C7.59,6.311,7.669,6.259,7.732,6.207
		c0.336-0.219,0.673-0.401,1.035-0.582C8.794,5.613,8.975,5.509,9,5.522c0.025,0.013-0.518,0.181-0.22,0.103
		c0.168-0.038,0.323-0.116,0.491-0.168c0.362-0.116,0.724-0.194,1.099-0.258c0.492-0.091-0.491,0.026,0.013,0
		c0.181-0.013,0.362-0.026,0.53-0.026h0.194h0.285h1.668h7.047h10.63h12.581h12.906H67.81h8.625h4.034h0.104h0.013
		c0.155,0,0.297,0,0.452,0.013c0.091,0,0.181,0.013,0.272,0.013c0.349,0.013-0.026,0.013-0.155-0.026
		c0.362,0.103,0.737,0.129,1.099,0.233c0.168,0.051,0.323,0.103,0.491,0.155c0.013,0,0.246,0.077,0.246,0.09
		c0-0.013-0.53-0.245-0.142-0.064c0.31,0.155,0.607,0.297,0.892,0.478c0.142,0.091,0.284,0.181,0.427,0.272
		c0.181,0.116,0.168,0.013,0.013,0c-0.156-0.117-0.169-0.13-0.065-0.052c0.039,0.039,0.09,0.065,0.129,0.103
		c0.259,0.22,0.504,0.44,0.737,0.686c0.117,0.116,0.22,0.245,0.336,0.375c0.026,0.026,0.169,0.168,0.156,0.194
		c0-0.039-0.324-0.453-0.104-0.117c0.181,0.285,0.375,0.569,0.53,0.867c0.078,0.155,0.156,0.297,0.22,0.452
		c0.091,0.194-0.013,0.181,0,0c-0.077-0.181-0.09-0.207-0.039-0.077c0.026,0.051,0.039,0.103,0.065,0.155
		c0.116,0.362,0.22,0.711,0.297,1.073c0.039,0.168,0.039,0.349,0.091,0.517c0-0.013-0.052-0.543-0.039-0.245
		c0,0.116,0.026,0.232,0.026,0.349c0.013,0.155,0.013,0.31,0.013,0.478c0.013,0.88,0,1.759,0,2.638v6.427v9.349V40.94v12.647v12.957
		v12.53v11.198v9.013v5.961C86.521,105.931,86.521,106.63,86.521,107.315c0,1.358,1.19,2.651,2.586,2.586
		c1.397-0.064,2.586-1.138,2.586-2.586v-2.263v-6.233v-9.258V78.13V65.406V52.203V39.531V28.203v-9.091V13.1
		c0-1.138,0.039-2.276-0.116-3.401C90.827,4.087,86.03,0.013,80.392,0h-4.436h-8.987h-11.87H42.038H29.405H19.008h-6.53h-1.293
		C8.729,0.013,6.337,0.776,4.396,2.276C1.643,4.397,0.025,7.617,0,11.108v0.634v4.409v7.888v10.552v12.22v13.06V72.88v12.142v10.28
		v7.591v4.021c0,0.815,0.064,1.617,0.193,2.431c0.518,3.298,2.845,6.375,5.832,7.849c1.668,0.828,3.44,1.229,5.302,1.242h1.578
		h6.982h10.746h12.698h13.022h11.664h8.651c1.28,0,2.573,0.013,3.853,0c6.116-0.039,11.108-4.992,11.172-11.108
		c0.013-1.358-1.202-2.651-2.586-2.586C87.698,104.793,86.534,105.867,86.521,107.315"/>
	<path clip-path="url(#SVGID_2_)" fill="#A0348C" d="M77.043,34.59h-6.22H55.888H37.901H22.345c-2.522,0-5.082-0.103-7.604,0h-0.103
		c0.866,0.866,1.72,1.72,2.586,2.586v-18.84v-2.664c-0.866,0.866-1.72,1.72-2.586,2.586h6.22h14.935H53.78h15.556
		c2.522,0,5.082,0.104,7.604,0h0.103c-0.866-0.866-1.72-1.72-2.586-2.586v18.84v2.664c0,1.358,1.189,2.651,2.586,2.586
		c1.397-0.064,2.586-1.138,2.586-2.586v-18.84v-2.664c0-1.397-1.189-2.586-2.586-2.586h-6.22H55.888H37.901H22.345
		c-2.535,0-5.069-0.065-7.604,0h-0.103c-1.397,0-2.586,1.189-2.586,2.586v18.84v2.664c0,1.397,1.189,2.586,2.586,2.586h6.22h14.935
		H53.78h15.556c2.535,0,5.069,0.065,7.604,0h0.103c1.358,0,2.651-1.189,2.586-2.586C79.565,35.768,78.491,34.59,77.043,34.59"/>
	<path clip-path="url(#SVGID_2_)" fill="#A0348C" d="M29.289,57.569H16.461h-1.823c0.867,0.866,1.72,1.72,2.586,2.586V49.603v-1.512
		c-0.866,0.866-1.719,1.719-2.586,2.586h12.828h1.823c-0.866-0.867-1.72-1.72-2.586-2.586v10.551v1.513
		c0,1.358,1.189,2.651,2.586,2.586c1.397-0.064,2.586-1.138,2.586-2.586V49.603v-1.512c0-1.397-1.189-2.587-2.586-2.587H16.461
		h-1.823c-1.396,0-2.586,1.19-2.586,2.587v10.551v1.513c0,1.397,1.19,2.586,2.586,2.586h12.828h1.823
		c1.358,0,2.651-1.189,2.586-2.586C31.811,58.759,30.737,57.569,29.289,57.569"/>
	<path clip-path="url(#SVGID_2_)" fill="#A0348C" d="M53.159,57.569H40.331h-1.823c0.867,0.866,1.72,1.72,2.586,2.586V49.603v-1.512
		l-2.586,2.586h12.828h1.823l-2.586-2.586v10.551v1.513c0,1.358,1.189,2.651,2.586,2.586c1.397-0.064,2.586-1.138,2.586-2.586
		V49.603v-1.512c0-1.397-1.189-2.587-2.586-2.587H40.331h-1.823c-1.396,0-2.586,1.19-2.586,2.587v10.551v1.513
		c0,1.397,1.19,2.586,2.586,2.586h12.828h1.823c1.358,0,2.651-1.189,2.586-2.586C55.693,58.759,54.62,57.569,53.159,57.569"/>
	<path clip-path="url(#SVGID_2_)" fill="#A0348C" d="M77.043,57.569H64.215h-1.823c0.867,0.866,1.72,1.72,2.586,2.586V49.603v-1.512
		c-0.866,0.866-1.719,1.719-2.586,2.586H75.22h1.823c-0.866-0.867-1.72-1.72-2.586-2.586v10.551v1.513
		c0,1.358,1.189,2.651,2.586,2.586c1.397-0.064,2.586-1.138,2.586-2.586V49.603v-1.512c0-1.397-1.189-2.587-2.586-2.587H64.215
		h-1.823c-1.396,0-2.586,1.19-2.586,2.587v10.551v1.513c0,1.397,1.19,2.586,2.586,2.586H75.22h1.823
		c1.358,0,2.651-1.189,2.586-2.586C79.565,58.759,78.491,57.569,77.043,57.569"/>
	<path clip-path="url(#SVGID_2_)" fill="#A0348C" d="M29.289,79.396H16.461h-1.823c0.867,0.866,1.72,1.72,2.586,2.586V71.431v-1.512
		c-0.866,0.866-1.719,1.719-2.586,2.586h12.828h1.823c-0.866-0.867-1.72-1.72-2.586-2.586V80.47v1.513
		c0,1.358,1.189,2.651,2.586,2.586c1.397-0.064,2.586-1.138,2.586-2.586V71.431v-1.512c0-1.397-1.189-2.587-2.586-2.587H16.461
		h-1.823c-1.396,0-2.586,1.19-2.586,2.587V80.47v1.513c0,1.397,1.19,2.586,2.586,2.586h12.828h1.823
		c1.358,0,2.651-1.189,2.586-2.586C31.811,80.587,30.737,79.396,29.289,79.396"/>
	<path clip-path="url(#SVGID_2_)" fill="#A0348C" d="M53.159,79.396H40.331h-1.823c0.867,0.866,1.72,1.72,2.586,2.586V71.431v-1.512
		c-0.866,0.866-1.719,1.719-2.586,2.586h12.828h1.823c-0.866-0.867-1.72-1.72-2.586-2.586V80.47v1.513
		c0,1.358,1.189,2.651,2.586,2.586c1.397-0.064,2.586-1.138,2.586-2.586V71.431v-1.512c0-1.397-1.189-2.587-2.586-2.587H40.331
		h-1.823c-1.396,0-2.586,1.19-2.586,2.587V80.47v1.513c0,1.397,1.19,2.586,2.586,2.586h12.828h1.823
		c1.358,0,2.651-1.189,2.586-2.586C55.693,80.587,54.62,79.396,53.159,79.396"/>
	<path clip-path="url(#SVGID_2_)" fill="#A0348C" d="M29.289,101.237H16.461h-1.823c0.867,0.866,1.72,1.72,2.586,2.586V93.271
		v-1.512c-0.866,0.866-1.719,1.719-2.586,2.586h12.828h1.823c-0.866-0.867-1.72-1.72-2.586-2.586v10.551v1.513
		c0,1.358,1.189,2.651,2.586,2.586c1.397-0.064,2.586-1.138,2.586-2.586V93.271v-1.512c0-1.397-1.189-2.587-2.586-2.587H16.461
		h-1.823c-1.396,0-2.586,1.19-2.586,2.587v10.551v1.513c0,1.397,1.19,2.586,2.586,2.586h12.828h1.823
		c1.358,0,2.651-1.189,2.586-2.586C31.811,102.414,30.737,101.237,29.289,101.237"/>
	<path clip-path="url(#SVGID_2_)" fill="#A0348C" d="M53.159,101.237H40.331h-1.823c0.867,0.866,1.72,1.72,2.586,2.586V93.271
		v-1.512c-0.866,0.866-1.719,1.719-2.586,2.586h12.828h1.823c-0.866-0.867-1.72-1.72-2.586-2.586v10.551v1.513
		c0,1.358,1.189,2.651,2.586,2.586c1.397-0.064,2.586-1.138,2.586-2.586V93.271v-1.512c0-1.397-1.189-2.587-2.586-2.587H40.331
		h-1.823c-1.396,0-2.586,1.19-2.586,2.587v10.551v1.513c0,1.397,1.19,2.586,2.586,2.586h12.828h1.823
		c1.358,0,2.651-1.189,2.586-2.586C55.693,102.414,54.62,101.237,53.159,101.237"/>
	<path clip-path="url(#SVGID_2_)" fill="#A0348C" d="M74.457,69.931v11.483v18.22v4.189c0.866-0.866,1.72-1.72,2.586-2.586H64.216
		h-1.824c0.867,0.866,1.72,1.72,2.587,2.586V92.34V74.121v-4.19c-0.867,0.866-1.72,1.72-2.587,2.586H75.22h1.823
		c1.358,0,2.651-1.189,2.586-2.586c-0.064-1.397-1.138-2.586-2.586-2.586H64.216h-1.824c-1.396,0-2.586,1.189-2.586,2.586v11.483
		v18.22v4.189c0,1.397,1.19,2.586,2.586,2.586H75.22h1.823c1.397,0,2.586-1.189,2.586-2.586V92.34V74.121v-4.19
		c0-1.358-1.189-2.651-2.586-2.586C75.647,67.409,74.457,68.483,74.457,69.931"/>
</g>
</svg>
