<?xml version="1.0" encoding="utf-8"?>
<!-- Generator: Adobe Illustrator 17.0.0, SVG Export Plug-In . SVG Version: 6.00 Build 0)  -->
<!DOCTYPE svg PUBLIC "-//W3C//DTD SVG 1.1//EN" "http://www.w3.org/Graphics/SVG/1.1/DTD/svg11.dtd">
<svg version="1.1" id="Layer_1" xmlns="http://www.w3.org/2000/svg" xmlns:xlink="http://www.w3.org/1999/xlink" x="0px" y="0px"
	 width="652.494px" height="419.393px" viewBox="0 0 652.494 419.393" enable-background="new 0 0 652.494 419.393"
	 xml:space="preserve">
<g>
	<defs>
		<rect id="SVGID_1_" width="652.494" height="419.393"/>
	</defs>
	<clipPath id="SVGID_2_">
		<use xlink:href="#SVGID_1_"  overflow="visible"/>
	</clipPath>
	<path clip-path="url(#SVGID_2_)" fill="#A0348C" d="M84.204,271.158c-5.809-0.004-10.521,4.703-10.524,10.511v0.012v94.713
		c-0.003,5.809,4.703,10.52,10.511,10.524h0.013H189.44c5.808,0.003,10.52-4.703,10.523-10.512v-0.012v-94.713
		c0.004-5.808-4.703-10.52-10.511-10.523h-0.012H84.204z M178.916,365.87H94.727v-73.665h84.189V365.87z"/>
	<path clip-path="url(#SVGID_2_)" fill="#A0348C" d="M263.105,208.016c-5.809-0.003-10.52,4.703-10.524,10.512v0.012v157.854
		c-0.003,5.809,4.703,10.52,10.512,10.524h0.012h105.236c5.809,0.003,10.521-4.703,10.524-10.512v-0.012V218.54
		c0.003-5.809-4.703-10.521-10.512-10.524h-0.012H263.105z M357.818,365.87h-84.189V229.063h84.189V365.87z"/>
	<path clip-path="url(#SVGID_2_)" fill="#A0348C" d="M452.531,386.917h105.236c5.809,0.004,10.52-4.702,10.524-10.511v-0.012
		V165.921h31.57c5.813-0.001,10.524-4.714,10.522-10.526c0-2.599-0.963-5.106-2.701-7.038L512.97,43.121
		c-4.154-4.319-11.022-4.454-15.342-0.3c-0.102,0.098-0.202,0.198-0.3,0.3l-94.713,105.236c-3.887,4.321-3.537,10.975,0.784,14.863
		c1.932,1.739,4.438,2.701,7.037,2.701h31.571v210.473c-0.003,5.809,4.703,10.52,10.512,10.523H452.531z M434.063,144.874
		l71.086-78.979l71.086,78.979h-18.468c-5.809-0.003-10.52,4.703-10.524,10.512v0.012V365.87h-84.189V155.398
		c0.004-5.809-4.703-10.521-10.511-10.524h-0.012H434.063z"/>
	
		<rect x="315.724" y="82.184" transform="matrix(-0.0014 1 -1 -0.0014 735.1133 82.7332)" clip-path="url(#SVGID_2_)" fill="#A0348C" width="21.047" height="652.466"/>
	<path clip-path="url(#SVGID_2_)" fill="#A0348C" d="M387.949,0l-65.287,54.666c-13.988-10.293-33.672-7.297-43.965,6.691
		c-3.999,5.436-6.144,12.014-6.117,18.763c0.051,1.22,0.174,2.436,0.368,3.641l-125.396,68.748
		c-12.32-12.326-32.299-12.331-44.625-0.011c-5.926,5.922-9.253,13.957-9.249,22.334c0.05,1.291,0.18,2.577,0.39,3.852
		L8.256,197.739l4.563,20.554l91.2-20.252c12.749,11.793,32.645,11.019,44.439-1.73c5.405-5.843,8.394-13.519,8.362-21.479
		c-0.052-1.08-0.161-2.156-0.325-3.224l125.674-68.901c12.234,12.26,32.089,12.28,44.348,0.047
		c8.018-8.002,11.098-19.707,8.056-30.619l66.88-56L387.949,0z M125.249,185.356c-5.812,0-10.523-4.712-10.523-10.524
		c0-5.812,4.711-10.524,10.523-10.524c5.812,0,10.524,4.712,10.524,10.524C135.769,180.642,131.06,185.352,125.249,185.356
		 M304.151,90.643c-5.812,0-10.524-4.712-10.524-10.524s4.712-10.523,10.524-10.523c5.812,0,10.524,4.711,10.524,10.523
		C314.671,85.93,309.961,90.639,304.151,90.643"/>
</g>
</svg>
