<?xml version="1.0" encoding="utf-8"?>
<!-- Generator: Adobe Illustrator 17.0.0, SVG Export Plug-In . SVG Version: 6.00 Build 0)  -->
<!DOCTYPE svg PUBLIC "-//W3C//DTD SVG 1.1//EN" "http://www.w3.org/Graphics/SVG/1.1/DTD/svg11.dtd">
<svg version="1.1" id="Layer_1" xmlns="http://www.w3.org/2000/svg" xmlns:xlink="http://www.w3.org/1999/xlink" x="0px" y="0px"
	 width="307.132px" height="306.256px" viewBox="0 0 307.132 306.256" enable-background="new 0 0 307.132 306.256"
	 xml:space="preserve">
<g>
	<defs>
		<rect id="SVGID_1_" x="0" y="0" width="307.132" height="306.256"/>
	</defs>
	<clipPath id="SVGID_2_">
		<use xlink:href="#SVGID_1_"  overflow="visible"/>
	</clipPath>
	<path clip-path="url(#SVGID_2_)" fill="#A0348C" d="M269.359,122.677c13.418-33.545,13.418-63.257-3.834-80.509
		c-5.271-5.271-11.501-8.626-19.168-11.022c-1.438-10.064-10.063-18.21-20.607-18.21c-10.543,0-19.169,8.147-20.606,18.689
		c-6.709,1.438-13.418,3.834-20.607,6.709C162.015,9.582,136.137-4.795,113.135,1.435c-23.481,6.23-38.337,31.628-43.609,67.569
		c-5.271,0.958-10.543,1.917-15.814,2.875c-3.834-5.751-10.064-9.105-17.251-9.105c-11.501,0-20.607,9.105-20.607,20.606
		c0,1.917,0.48,3.834,0.959,5.751c-7.668,6.23-12.939,13.897-15.335,23.003c-5.272,19.168,3.834,40.254,23.003,59.423
		c4.313,4.313,8.626,8.147,13.897,11.98c-13.418,33.545-13.418,63.257,3.834,80.508c16.772,17.252,46.963,17.252,80.508,3.834
		c3.834,4.792,8.147,9.584,11.98,13.897c19.169,19.169,40.255,28.274,59.423,23.003c7.668-1.917,14.856-6.23,20.607-12.46
		c1.917,0.479,3.354,0.958,5.271,0.958c11.501,0,20.607-9.105,20.607-20.606c0-6.23-2.876-11.501-7.188-15.335
		c1.917-6.23,3.355-12.939,4.313-19.648c35.941-5.272,61.34-20.127,67.569-43.609C312.489,170.598,298.112,144.721,269.359,122.677
		 M208.978,45.523c3.834,5.751,10.064,9.105,17.251,9.105c7.188,0,13.897-3.834,17.252-9.584c4.792,1.437,8.626,3.834,11.98,7.188
		c12.459,12.46,11.98,34.983,1.917,61.819c-11.98-8.147-26.357-15.814-41.692-22.044c-6.709-15.335-13.897-29.711-22.044-41.692
		C198.915,48.398,204.186,46.481,208.978,45.523 M173.037,222.353c-24.44-3.355-47.442-9.584-69.007-18.689
		c-9.105-22.044-15.335-46.484-18.69-69.007c14.377-18.21,31.149-35.462,50.797-50.797c24.919,3.834,47.922,10.064,69.007,18.69
		c9.105,23.002,15.335,46.484,18.689,69.007C209.457,189.767,192.684,207.018,173.037,222.353 M225.751,191.684
		c0.959,11.501,0.959,23.002,0,33.066c-10.543,0.959-21.565,0.959-33.066,0C205.144,213.728,216.166,202.706,225.751,191.684
		 M180.225,56.065c5.751,8.626,11.501,18.21,16.293,28.753c-14.376-5.272-29.232-9.105-45.046-11.98
		C161.536,66.129,171.12,60.378,180.225,56.065 M117.447,14.853c20.607-5.271,41.213,12.939,54.631,29.232
		c-12.939,6.709-26.357,14.856-39.775,24.919c-16.772-1.917-32.587-2.396-46.963-1.438C89.174,39.293,100.675,19.645,117.447,14.853
		 M82.944,81.943c10.543-0.958,21.565-0.958,33.066,0c-11.98,10.543-22.523,21.086-33.066,33.066
		C82.465,103.508,82.465,92.486,82.944,81.943 M85.82,195.997c-10.543-5.272-20.127-10.543-28.753-16.773
		c4.313-9.584,10.064-19.168,16.773-28.753C76.714,166.285,80.548,181.141,85.82,195.997 M15.854,116.447
		c1.438-5.751,4.792-11.022,10.064-15.335c3.355,1.917,7.188,3.355,11.501,3.355c10.543,0,19.169-8.147,20.607-18.69
		c3.354-0.958,7.188-1.437,11.022-2.396c-0.958,14.376-0.479,30.191,1.438,46.963c-10.063,13.418-18.69,26.836-24.919,39.775
		C23.042,152.867,11.541,133.219,15.854,116.447 M53.233,254.461c-12.459-12.459-11.98-34.982-1.917-61.819
		c11.98,8.147,26.357,15.814,41.692,22.044c6.709,15.335,13.897,29.711,22.044,41.692C88.216,266.441,65.213,266.921,53.233,254.461
		 M128.47,250.627c-5.751-8.626-11.501-18.21-16.772-28.753c14.376,4.792,27.795,8.626,45.046,11.98
		C147.159,240.564,137.575,246.314,128.47,250.627 M220.959,252.065c-11.501,0-20.607,9.105-20.607,20.607
		c0,4.313,1.438,8.626,3.834,11.98c-3.834,3.354-7.668,5.751-12.46,7.188c-16.772,4.313-36.42-7.188-54.631-29.232
		c12.939-6.23,26.357-14.855,39.775-24.919c16.772,1.917,32.586,2.396,46.963,1.438
		C223.355,243.439,222.396,248.231,220.959,252.065 M222.875,110.696c10.543,5.272,20.127,10.543,28.753,16.772
		c-4.313,9.105-10.063,19.169-16.772,28.753C232.46,140.887,228.146,126.031,222.875,110.696 M292.841,190.246
		c-4.313,16.772-24.44,27.795-52.714,32.587c0.959-14.376,0.48-30.191-1.917-46.963c10.064-13.418,18.69-26.836,24.919-39.775
		C285.652,153.826,297.154,173.474,292.841,190.246"/>
	<polygon clip-path="url(#SVGID_2_)" fill="#A0348C" points="182.621,127.469 162.494,138.97 162.494,115.967 146.201,115.967 
		146.201,138.97 126.073,127.469 117.927,141.845 137.575,153.346 117.927,164.848 126.073,179.224 146.201,167.723 
		146.201,190.725 162.494,190.725 162.494,167.723 182.621,179.224 190.768,164.848 171.12,153.346 190.768,141.845 	"/>
</g>
</svg>
