<?xml version="1.0" encoding="utf-8"?>
<!-- Generator: Adobe Illustrator 17.0.0, SVG Export Plug-In . SVG Version: 6.00 Build 0)  -->
<!DOCTYPE svg PUBLIC "-//W3C//DTD SVG 1.1//EN" "http://www.w3.org/Graphics/SVG/1.1/DTD/svg11.dtd">
<svg version="1.1" id="Layer_1" xmlns="http://www.w3.org/2000/svg" xmlns:xlink="http://www.w3.org/1999/xlink" x="0px" y="0px"
	 width="127.597px" height="150.119px" viewBox="0 0 127.597 150.119" enable-background="new 0 0 127.597 150.119"
	 xml:space="preserve">
<g>
	<defs>
		<rect id="SVGID_1_" x="0" width="127.597" height="150.119"/>
	</defs>
	<clipPath id="SVGID_2_">
		<use xlink:href="#SVGID_1_"  overflow="visible"/>
	</clipPath>
	<path clip-path="url(#SVGID_2_)" fill="#A0348C" d="M63.784,71.143c19.626,0,35.557-15.961,35.557-35.557
		C99.34,15.99,83.409,0,63.784,0S28.227,15.961,28.227,35.587S44.158,71.143,63.784,71.143 M63.784,8.335
		c15.015,0,27.222,12.207,27.222,27.222S78.798,62.779,63.784,62.779S36.562,50.572,36.562,35.557S48.769,8.335,63.784,8.335"/>
	<path clip-path="url(#SVGID_2_)" fill="#A0348C" d="M99.193,81.636H78.769c-1.537,0-2.956,0.857-3.695,2.217l-11.291,21.281
		L52.493,83.853c-0.709-1.36-2.128-2.217-3.695-2.217H28.375C12.739,81.636,0,94.375,0,110.01v35.941
		c0,2.306,1.862,4.168,4.168,4.168h119.262c2.306,0,4.168-1.862,4.168-4.168V110.01C127.567,94.375,114.858,81.636,99.193,81.636
		 M119.232,141.814H8.335V110.01c0-8.305,5.084-15.428,12.266-18.473c0.887,4.345,2.867,11.084,7.212,18.739
		c-1.891,2.158-3.044,4.966-3.044,8.069c0,6.769,5.498,12.266,12.266,12.266c6.768,0,12.266-5.497,12.266-12.266
		s-5.498-12.266-12.266-12.266c-0.65,0-1.3,0.059-1.951,0.177C31.271,99.547,29.557,93.666,28.788,90h17.498l13.803,25.98
		c1.773,2.897,5.675,3.045,7.36,0L81.252,90h17.912c0.916,0,1.803,0.089,2.69,0.207c-1.005,3.192-2.808,7.005-4.286,9.783
		c-7.951-0.798-17.527,6.384-23.823,18.532c-0.414,0.828-0.562,1.744-0.414,2.66l0.975,5.498c0.414,2.276,2.572,3.783,4.847,3.369
		c2.276-0.414,3.783-2.571,3.369-4.847l-0.709-4.079c5.527-9.901,13.005-14.099,15.931-12.591c1.478,0.768,2.364,3.251,2.394,6.65
		c0,4.049-1.241,8.956-3.458,13.626l-3.754,1.773c-2.069,0.975-2.985,3.458-2.01,5.557c1.094,1.98,3.281,2.985,5.557,2.01
		l5.054-2.364c0.828-0.384,1.507-1.034,1.921-1.862c3.251-6.296,5.025-12.946,5.025-18.739c-0.03-4.759-1.271-8.601-3.517-11.291
		c1.448-2.749,3.488-6.916,4.758-10.847c5.675,3.547,9.488,9.843,9.488,16.995v31.773H119.232z M33.104,118.345
		c0-2.158,1.773-3.931,3.931-3.931c2.157,0,3.931,1.773,3.931,3.931s-1.773,3.931-3.931,3.931
		C34.877,122.277,33.104,120.533,33.104,118.345"/>
</g>
</svg>
