<?xml version="1.0" encoding="utf-8"?>
<!-- Generator: Adobe Illustrator 17.0.0, SVG Export Plug-In . SVG Version: 6.00 Build 0)  -->
<!DOCTYPE svg PUBLIC "-//W3C//DTD SVG 1.1//EN" "http://www.w3.org/Graphics/SVG/1.1/DTD/svg11.dtd">
<svg version="1.1" id="Layer_1" xmlns="http://www.w3.org/2000/svg" xmlns:xlink="http://www.w3.org/1999/xlink" x="0px" y="0px"
	 width="203.347px" height="202.073px" viewBox="0 0 203.347 202.073" enable-background="new 0 0 203.347 202.073"
	 xml:space="preserve">
<g>
	<defs>
		<rect id="SVGID_1_" x="0" y="0" width="203.347" height="202.072"/>
	</defs>
	<clipPath id="SVGID_2_">
		<use xlink:href="#SVGID_1_"  overflow="visible"/>
	</clipPath>
	<path clip-path="url(#SVGID_2_)" fill="#A0348C" d="M105.235,0c-2.686,0.005-4.43,2.833-3.229,5.235l8.401,16.816
		c-4.151,1.226-7.256,5.049-7.256,9.567c0,2.023,0.625,3.914,1.682,5.497C91.763,48.056,81.57,67.622,79.411,93.518
		c-0.158,1.99,1.324,3.732,3.314,3.893c1.98,0.163,3.72-1.3,3.9-3.278c2.127-25.514,12.695-43.578,24.595-52.58
		c12.862,0.188,25.857-0.001,38.783,0.031c10.543,8.144,20.086,24.583,23.486,45.017c0.334,1.968,2.2,3.293,4.168,2.96
		c1.976-0.321,3.316-2.186,2.989-4.161c-3.467-20.84-12.657-38.269-24.376-48.285c1.056-1.583,1.681-3.474,1.681-5.497
		c0-4.517-3.104-8.34-7.256-9.567l8.401-16.815c1.201-2.403-0.543-5.23-3.229-5.236L105.235,0z M111.085,7.207h38.931l-7.178,14.392
		h-24.574L111.085,7.207z M113.031,28.78l34.879,0.062c1.605,0.003,2.805,1.172,2.805,2.776c0,1.442-0.999,2.486-2.36,2.692
		l-35.348,0.07c-1.758,0-2.63-1.342-2.63-2.835C110.437,30.013,111.482,28.78,113.031,28.78L113.031,28.78z M126.947,54.637v2.438
		c-0.734,0.251-1.461,0.55-2.141,0.954c-3.1,1.84-5.122,5.01-5.469,8.599c-0.347,3.589,1.036,7.117,3.738,9.503
		c1.939,1.712,4.162,2.504,6.889,3.487c3.265,1.269,4.607,2.596,4.592,4.843c0.048,1.183-0.95,2.463-1.979,3.073
		c-1.028,0.61-2.569,0.731-3.66,0.268c-1.091-0.463-2.054-1.631-2.317-2.777c-0.442-1.95-2.382-3.171-4.331-2.727
		c-1.947,0.445-3.164,2.384-2.72,4.331c0.809,3.513,3.224,6.413,6.543,7.821c0.277,0.118,0.572,0.153,0.855,0.248v2.452
		c-0.007,1.998,1.605,3.624,3.603,3.632c1.998-0.008,3.611-1.634,3.604-3.632v-2.445c0.734-0.251,1.461-0.543,2.141-0.947
		c3.1-1.84,5.122-5.01,5.469-8.599c0.346-3.588-1.036-7.095-3.738-9.482c-1.037-0.916-2.486-1.724-5.399-2.779
		c-2.914-1.055-4.052-1.575-4.747-2.188c-0.883-0.78-1.449-2.218-1.335-3.391c0.113-1.174,0.95-2.463,1.978-3.073
		c1.029-0.61,2.57-0.703,3.66-0.24c1.091,0.463,2.054,1.631,2.318,2.776c0.455,1.938,2.391,3.145,4.331,2.699
		c1.943-0.445,3.16-2.379,2.72-4.324c-0.809-3.513-3.224-6.42-6.543-7.829c-0.277-0.118-0.572-0.153-0.855-0.247v-2.445
		c-0.004-1.99-1.614-3.602-3.604-3.602C128.561,51.035,126.951,52.647,126.947,54.637L126.947,54.637z M186.628,90.628
		l-30.07,23.069c-2.196-3.744-6.226-6.299-10.866-6.267l-28.975,0.184c-6.307,0.079-16.941-5.15-29.83-5.871
		c-12.183-0.682-26.38,2.681-40.887,18.391l-1.491-1.491c-4.066-4.067-9.235-3.369-12.605,0l-6.528,6.528
		c-1.607-1.487-3.54-1.314-4.953,0.098L2.907,142.678c-3.876,3.856-3.876,10.268,0,14.124l42.618,42.378
		c3.877,3.857,10.247,3.857,14.124,0l17.388-17.275c1.99-1.99,1.175-3.954-0.403-5.532l6.514-6.514
		c3.239-3.239,3.395-8.445,0.551-11.926c2.262-2.641,7.249-6.917,16.031-6.684c15.969,0.423,28.655,1.262,38.831,0.827
		c10.177-0.435,18.24-2.178,23.846-7.772c16.512-16.474,36.613-36.45,36.613-36.45c2.84-2.852,3.437-4.224,3.988-6.285
		c0.71-2.447,0.312-5.377-1.297-7.867c-1.591-2.462-4.14-4.177-6.889-4.804C191.871,88.114,189.073,88.849,186.628,90.628
		L186.628,90.628z M195.531,101.58c0,0-21.768,21.155-38.253,37.602c-3.652,3.644-9.534,5.282-19.034,5.688
		c-9.501,0.406-22.202-0.428-38.323-0.855c-10.716-0.284-17.642,5.091-21.182,8.839l-27.576-27.562
		c27.38-30.129,46.999-10.203,65.637-10.436l28.947-0.191c3.02-0.021,5.335,2.312,5.335,5.342s-2.313,5.37-5.363,5.37H109.05
		c-1.998,0.008-3.611,1.634-3.603,3.632c0.007,1.987,1.616,3.595,3.603,3.603h36.669c6.382,0,11.648-4.845,12.442-11.022
		l32.875-25.216c1.547-1.172,3.338-0.444,4.386,0.803C196.47,98.423,196.787,100.324,195.531,101.58L195.531,101.58z
		 M39.407,123.743l38.619,38.64c0.705,0.705,0.705,1.669,0,2.374l-6.493,6.521l-41.014-41.022l6.514-6.514
		C37.952,122.824,39.036,123.373,39.407,123.743 M22.959,132.928l46.35,46.454l-14.761,14.676c-1.125,1.119-2.796,1.119-3.921,0
		L8.008,151.673c-1.126-1.12-1.126-2.752,0-3.872L22.959,132.928z M51.022,179.023c-1.239,1.717-0.849,4.112,0.869,5.348
		c1.715,1.234,4.106,0.845,5.341-0.869c1.235-1.713,0.849-4.103-0.862-5.342C54.412,176.908,52.309,177.3,51.022,179.023z"/>
</g>
</svg>
