<?xml version="1.0" encoding="utf-8"?>
<!-- Generator: Adobe Illustrator 17.0.0, SVG Export Plug-In . SVG Version: 6.00 Build 0)  -->
<!DOCTYPE svg PUBLIC "-//W3C//DTD SVG 1.1//EN" "http://www.w3.org/Graphics/SVG/1.1/DTD/svg11.dtd">
<svg version="1.1" id="Layer_1" xmlns="http://www.w3.org/2000/svg" xmlns:xlink="http://www.w3.org/1999/xlink" x="0px" y="0px"
	 width="102.23px" height="144.323px" viewBox="0 0 102.23 144.323" enable-background="new 0 0 102.23 144.323"
	 xml:space="preserve">
<path fill="#A0348C" d="M45.854,86.446c-1.004,0-1.949-0.392-2.659-1.102l-5.252-5.252c-1.407-1.466-1.404-3.755,0.008-5.218
	c0.715-0.741,1.676-1.148,2.706-1.148c0.976,0,1.9,0.372,2.604,1.048l2.186,2.187l13.182-17.579
	c0.717-0.956,1.815-1.505,3.013-1.505c0.817,0,1.596,0.26,2.253,0.753c1.659,1.244,1.997,3.607,0.752,5.266L48.863,84.941
	c-0.646,0.867-1.625,1.412-2.695,1.505H45.854z"/>
<path fill="#A0348C" d="M51.115,102.231c-16.58,0-30.069-13.489-30.069-30.069c0-16.58,13.489-30.069,30.069-30.069
	c16.563,0.017,30.053,13.506,30.069,30.071C81.185,88.742,67.695,102.231,51.115,102.231z M51.115,49.615
	c-12.432,0-22.546,10.114-22.546,22.546s10.114,22.546,22.546,22.546c12.432,0,22.546-10.114,22.546-22.546
	S63.547,49.615,51.115,49.615z"/>
<path fill="#A0348C" d="M14.285,144.323C6.408,144.323,0,137.915,0,130.038V14.285C0,6.408,6.408,0,14.285,0h52.498
	c0.107,0.023,0.25,0.046,0.422,0.046c0.012,0,0.025,0,0.037,0c0.286,0.028,0.568,0.088,0.841,0.18l0.034,0.011l0.034,0.01
	c0.115,0.033,0.23,0.073,0.342,0.118c0.399,0.184,0.761,0.433,1.074,0.743l31.563,31.563c0.352,0.352,0.625,0.764,0.812,1.225
	c0.192,0.465,0.289,0.945,0.29,1.438v94.704c0,7.877-6.408,14.285-14.285,14.285H14.285z M14.285,7.523
	c-3.728,0-6.761,3.033-6.761,6.761v115.754c0,3.728,3.033,6.761,6.761,6.761h73.661c3.728,0,6.762-3.033,6.762-6.761v-93.15
	L70.661,12.842v11.966c0,3.728,3.033,6.761,6.762,6.761c2.074,0,3.762,1.688,3.762,3.762c0,2.074-1.687,3.762-3.762,3.762
	c-7.877,0-14.285-6.408-14.285-14.285V7.523H14.285z"/>
</svg>
